<svg width="1440" height="1024" viewBox="0 0 1440 1024" fill="none" xmlns="http://www.w3.org/2000/svg">
<rect width="1440" height="1024" fill="white"/>
<path d="M1221.63 492.91H1252.91V495.62H1251.37C1249.17 495.62 1247.51 496.108 1246.39 497.085C1245.32 498.013 1244.78 499.185 1244.78 500.601C1244.78 502.505 1245.58 505.142 1247.2 508.511L1263.53 542.349L1278.54 505.288C1279.37 503.286 1279.79 501.309 1279.79 499.355C1279.79 498.477 1279.62 497.817 1279.28 497.378C1278.89 496.841 1278.28 496.426 1277.45 496.133C1276.62 495.791 1275.15 495.62 1273.05 495.62V492.91H1294.88V495.62C1293.07 495.815 1291.68 496.206 1290.7 496.792C1289.73 497.378 1288.65 498.477 1287.48 500.088C1287.04 500.771 1286.21 502.651 1284.99 505.728L1257.67 572.671C1255.03 579.165 1251.57 584.072 1247.27 587.393C1243.02 590.713 1238.92 592.373 1234.96 592.373C1232.08 592.373 1229.72 591.543 1227.86 589.883C1226 588.223 1225.08 586.318 1225.08 584.17C1225.08 582.119 1225.74 580.459 1227.05 579.189C1228.42 577.969 1230.28 577.358 1232.62 577.358C1234.23 577.358 1236.43 577.896 1239.21 578.97C1241.17 579.702 1242.39 580.068 1242.88 580.068C1244.34 580.068 1245.93 579.312 1247.64 577.798C1249.39 576.284 1251.15 573.354 1252.91 569.009L1257.67 557.363L1233.57 506.753C1232.84 505.239 1231.67 503.359 1230.06 501.113C1228.84 499.404 1227.84 498.257 1227.05 497.671C1225.93 496.89 1224.12 496.206 1221.63 495.62V492.91Z" fill="black"/>
<path d="M1128.62 505.215C1133.5 500.332 1136.38 497.524 1137.26 496.792C1139.46 494.937 1141.83 493.496 1144.36 492.471C1146.9 491.445 1149.42 490.933 1151.91 490.933C1156.11 490.933 1159.72 492.153 1162.75 494.595C1165.78 497.036 1167.8 500.576 1168.83 505.215C1173.86 499.355 1178.1 495.522 1181.57 493.716C1185.04 491.86 1188.6 490.933 1192.26 490.933C1195.83 490.933 1198.98 491.86 1201.71 493.716C1204.5 495.522 1206.69 498.501 1208.3 502.651C1209.38 505.483 1209.92 509.927 1209.92 515.981V544.839C1209.92 549.038 1210.23 551.919 1210.87 553.481C1211.36 554.556 1212.26 555.483 1213.58 556.265C1214.9 556.997 1217.04 557.363 1220.02 557.363V560H1186.92V557.363H1188.31C1191.19 557.363 1193.44 556.802 1195.05 555.679C1196.17 554.897 1196.98 553.652 1197.46 551.943C1197.66 551.113 1197.76 548.745 1197.76 544.839V515.981C1197.76 510.513 1197.1 506.655 1195.78 504.409C1193.88 501.284 1190.82 499.722 1186.62 499.722C1184.04 499.722 1181.42 500.381 1178.79 501.699C1176.2 502.969 1173.05 505.361 1169.34 508.877L1169.19 509.683L1169.34 512.832V544.839C1169.34 549.429 1169.58 552.285 1170.07 553.408C1170.61 554.531 1171.59 555.483 1173 556.265C1174.42 556.997 1176.83 557.363 1180.25 557.363V560H1146.34V557.363C1150.05 557.363 1152.59 556.924 1153.96 556.045C1155.38 555.166 1156.35 553.848 1156.89 552.09C1157.13 551.26 1157.25 548.843 1157.25 544.839V515.981C1157.25 510.513 1156.45 506.582 1154.84 504.189C1152.69 501.064 1149.69 499.502 1145.83 499.502C1143.19 499.502 1140.58 500.21 1137.99 501.626C1133.94 503.774 1130.81 506.191 1128.62 508.877V544.839C1128.62 549.233 1128.91 552.09 1129.5 553.408C1130.13 554.727 1131.03 555.728 1132.21 556.411C1133.43 557.046 1135.87 557.363 1139.53 557.363V560H1106.35V557.363C1109.43 557.363 1111.58 557.046 1112.8 556.411C1114.02 555.728 1114.95 554.678 1115.58 553.262C1116.21 551.797 1116.53 548.989 1116.53 544.839V519.204C1116.53 511.831 1116.31 507.07 1115.87 504.922C1115.53 503.311 1114.99 502.212 1114.26 501.626C1113.53 500.991 1112.53 500.674 1111.26 500.674C1109.89 500.674 1108.26 501.04 1106.35 501.772L1105.25 499.136L1125.47 490.933H1128.62V505.215Z" fill="black"/>
<path d="M1066.51 490.933C1076.66 490.933 1084.82 494.79 1090.97 502.505C1096.2 509.097 1098.81 516.665 1098.81 525.21C1098.81 531.216 1097.37 537.295 1094.49 543.447C1091.61 549.6 1087.63 554.238 1082.55 557.363C1077.52 560.488 1071.9 562.051 1065.7 562.051C1055.59 562.051 1047.56 558.022 1041.61 549.966C1036.58 543.179 1034.06 535.562 1034.06 527.114C1034.06 520.962 1035.58 514.858 1038.6 508.804C1041.68 502.7 1045.71 498.208 1050.69 495.327C1055.67 492.397 1060.94 490.933 1066.51 490.933ZM1064.24 495.693C1061.65 495.693 1059.04 496.475 1056.4 498.037C1053.81 499.551 1051.71 502.236 1050.1 506.094C1048.49 509.951 1047.68 514.907 1047.68 520.962C1047.68 530.728 1049.61 539.15 1053.47 546.23C1057.38 553.311 1062.5 556.851 1068.85 556.851C1073.59 556.851 1077.49 554.897 1080.57 550.991C1083.65 547.085 1085.18 540.371 1085.18 530.85C1085.18 518.936 1082.62 509.561 1077.49 502.725C1074.03 498.037 1069.61 495.693 1064.24 495.693Z" fill="#A8D9EE"/>
<path d="M1011.43 470.864V492.91H1027.1V498.037H1011.43V541.543C1011.43 545.889 1012.04 548.818 1013.26 550.332C1014.53 551.846 1016.14 552.603 1018.09 552.603C1019.71 552.603 1021.27 552.114 1022.78 551.138C1024.3 550.112 1025.47 548.623 1026.3 546.67H1029.15C1027.45 551.455 1025.03 555.068 1021.9 557.51C1018.78 559.902 1015.56 561.099 1012.24 561.099C1009.99 561.099 1007.79 560.488 1005.64 559.268C1003.5 557.998 1001.91 556.216 1000.88 553.921C999.857 551.577 999.345 547.988 999.345 543.154V498.037H988.725V495.62C991.41 494.546 994.145 492.739 996.928 490.2C999.76 487.612 1002.27 484.561 1004.47 481.045C1005.59 479.189 1007.16 475.796 1009.16 470.864H1011.43Z" fill="black"/>
<path fill-rule="evenodd" clip-rule="evenodd" d="M963.31 550.332C963.358 554.336 964.091 557.168 965.507 558.828C966.923 560.488 968.827 561.318 971.22 561.318C976.2 561.318 981.425 557.656 986.894 550.332V546.23C983.964 549.16 981.986 550.942 980.961 551.577C980.375 551.919 979.691 552.09 978.91 552.09C978.178 552.09 977.519 551.846 976.933 551.357C976.396 550.869 976.005 549.917 975.761 548.501C975.517 547.036 975.395 543.105 975.395 536.709V513.931C975.395 507.437 974.955 503.14 974.076 501.04C972.709 497.817 970.585 495.449 967.704 493.936C963.896 491.934 959.013 490.933 953.056 490.933C945.292 490.933 939.262 492.69 934.965 496.206C930.668 499.722 928.52 503.579 928.52 507.778C928.52 509.976 929.081 511.709 930.204 512.979C931.376 514.248 932.865 514.883 934.672 514.883C936.527 514.883 938.017 514.272 939.14 513.052C940.312 511.831 940.897 510.098 940.897 507.852L940.751 503.604C940.751 501.455 941.679 499.551 943.534 497.891C945.341 496.23 947.782 495.4 950.858 495.4C954.911 495.4 957.987 496.646 960.087 499.136C962.235 501.626 963.31 506.216 963.31 512.905V515.542V520.01V545.571V550.332Z" fill="black"/>
<path d="M950.346 559.561C952.104 558.73 956.425 555.654 963.31 550.332V545.571C957.255 550.454 952.372 552.896 948.661 552.896C945.927 552.896 943.51 551.748 941.41 549.453C939.311 547.109 938.261 544.18 938.261 540.664C938.261 537.881 939.091 535.317 940.751 532.974C942.411 530.63 945.17 528.384 949.027 526.235C951.176 525.015 955.937 522.939 963.31 520.01V515.542C951.786 519.741 943.534 523.306 938.554 526.235C933.622 529.165 930.155 532.29 928.153 535.61C926.688 538.003 925.956 540.835 925.956 544.106C925.956 549.282 927.445 553.457 930.424 556.631C933.451 559.805 937.284 561.392 941.923 561.392C944.901 561.392 947.709 560.781 950.346 559.561Z" fill="black"/>
<path d="M950.346 559.561C952.104 558.73 956.425 555.654 963.31 550.332V545.571C957.255 550.454 952.372 552.896 948.661 552.896C945.927 552.896 943.51 551.748 941.41 549.453C939.311 547.109 938.261 544.18 938.261 540.664C938.261 537.881 939.091 535.317 940.751 532.974C942.411 530.63 945.17 528.384 949.027 526.235C951.176 525.015 955.937 522.939 963.31 520.01V515.542C951.786 519.741 943.534 523.306 938.554 526.235C933.622 529.165 930.155 532.29 928.153 535.61C926.688 538.003 925.956 540.835 925.956 544.106C925.956 549.282 927.445 553.457 930.424 556.631C933.451 559.805 937.284 561.392 941.923 561.392C944.901 561.392 947.709 560.781 950.346 559.561Z" fill="#A8D9EE"/>
<path d="M869.853 505.142C877.714 495.669 885.209 490.933 892.338 490.933C896 490.933 899.149 491.86 901.786 493.716C904.423 495.522 906.522 498.525 908.085 502.725C909.159 505.654 909.696 510.146 909.696 516.201V544.839C909.696 549.087 910.038 551.968 910.722 553.481C911.259 554.702 912.113 555.654 913.285 556.338C914.506 557.021 916.728 557.363 919.95 557.363V560H886.771V557.363H888.163C891.288 557.363 893.461 556.899 894.682 555.972C895.951 554.995 896.83 553.579 897.318 551.724C897.514 550.991 897.611 548.696 897.611 544.839V517.373C897.611 511.27 896.806 506.851 895.194 504.116C893.632 501.333 890.971 499.941 887.211 499.941C881.4 499.941 875.614 503.115 869.853 509.463V544.839C869.853 549.38 870.121 552.188 870.658 553.262C871.342 554.678 872.27 555.728 873.441 556.411C874.662 557.046 877.104 557.363 880.766 557.363V560H847.587V557.363H849.052C852.47 557.363 854.765 556.509 855.937 554.8C857.157 553.042 857.768 549.722 857.768 544.839V519.937C857.768 511.88 857.572 506.973 857.182 505.215C856.84 503.457 856.278 502.261 855.497 501.626C854.765 500.991 853.764 500.674 852.494 500.674C851.127 500.674 849.491 501.04 847.587 501.772L846.488 499.136L866.703 490.933H869.853V505.142Z" fill="black"/>
<path d="M805.839 526.748H767.387L760.648 542.422C758.988 546.279 758.158 549.16 758.158 551.064C758.158 552.578 758.866 553.921 760.282 555.093C761.747 556.216 764.872 556.948 769.657 557.29V560H738.383V557.29C742.533 556.558 745.219 555.605 746.439 554.434C748.93 552.09 751.688 547.329 754.716 540.151L789.652 458.413H792.216L826.786 541.03C829.569 547.671 832.084 551.992 834.33 553.994C836.625 555.947 839.799 557.046 843.852 557.29V560H804.667V557.29C808.622 557.095 811.283 556.436 812.65 555.312C814.066 554.189 814.774 552.822 814.774 551.211C814.774 549.062 813.798 545.669 811.845 541.03L805.839 526.748ZM803.788 521.328L786.942 481.191L769.657 521.328H803.788Z" fill="black"/>
<path d="M649.027 518.179C648.979 528.14 651.396 535.952 656.278 541.616C661.161 547.28 666.898 550.112 673.49 550.112C677.885 550.112 681.693 548.916 684.916 546.523C688.188 544.082 690.922 539.932 693.119 534.072L695.39 535.537C694.364 542.227 691.386 548.33 686.454 553.848C681.522 559.316 675.346 562.051 667.924 562.051C659.867 562.051 652.958 558.926 647.196 552.676C641.483 546.377 638.627 537.93 638.627 527.334C638.627 515.859 641.557 506.924 647.416 500.527C653.324 494.082 660.722 490.859 669.608 490.859C677.128 490.859 683.305 493.35 688.139 498.33C692.973 503.262 695.39 509.878 695.39 518.179H649.027ZM649.027 513.931H680.082C679.838 509.634 679.325 506.606 678.544 504.849C677.323 502.114 675.492 499.966 673.051 498.403C670.658 496.841 668.144 496.06 665.507 496.06C661.454 496.06 657.816 497.646 654.594 500.82C651.42 503.945 649.564 508.315 649.027 513.931Z" fill="black"/>
<path d="M628.08 534.512C626.273 543.35 622.733 550.161 617.46 554.946C612.187 559.683 606.352 562.051 599.955 562.051C592.338 562.051 585.697 558.853 580.033 552.456C574.369 546.06 571.537 537.417 571.537 526.528C571.537 515.981 574.662 507.412 580.912 500.82C587.211 494.229 594.755 490.933 603.544 490.933C610.136 490.933 615.556 492.69 619.804 496.206C624.052 499.673 626.176 503.286 626.176 507.046C626.176 508.901 625.565 510.415 624.345 511.587C623.173 512.71 621.513 513.271 619.364 513.271C616.483 513.271 614.311 512.344 612.846 510.488C612.016 509.463 611.454 507.51 611.161 504.629C610.917 501.748 609.94 499.551 608.231 498.037C606.522 496.572 604.154 495.84 601.127 495.84C596.244 495.84 592.313 497.646 589.335 501.26C585.38 506.045 583.402 512.368 583.402 520.229C583.402 528.237 585.355 535.317 589.262 541.47C593.217 547.573 598.539 550.625 605.229 550.625C610.014 550.625 614.311 548.989 618.119 545.718C620.805 543.472 623.417 539.395 625.956 533.486L628.08 534.512Z" fill="black"/>
<path fill-rule="evenodd" clip-rule="evenodd" d="M542.46 550.332C542.509 554.336 543.241 557.168 544.657 558.828C546.073 560.488 547.978 561.318 550.37 561.318C555.351 561.318 560.575 557.656 566.044 550.332V546.23C563.114 549.16 561.137 550.942 560.111 551.577C559.525 551.919 558.842 552.09 558.061 552.09C557.328 552.09 556.669 551.846 556.083 551.357C555.546 550.869 555.155 549.917 554.911 548.501C554.667 547.036 554.545 543.105 554.545 536.709V513.931C554.545 507.437 554.105 503.14 553.227 501.04C551.859 497.817 549.735 495.449 546.854 493.936C543.046 491.934 538.163 490.933 532.206 490.933C524.442 490.933 518.412 492.69 514.115 496.206C509.818 499.722 507.67 503.579 507.67 507.778C507.67 509.976 508.231 511.709 509.354 512.979C510.526 514.248 512.016 514.883 513.822 514.883C515.678 514.883 517.167 514.272 518.29 513.052C519.462 511.831 520.048 510.098 520.048 507.852L519.901 503.604C519.901 501.455 520.829 499.551 522.685 497.891C524.491 496.23 526.933 495.4 530.009 495.4C534.062 495.4 537.138 496.646 539.237 499.136C541.386 501.626 542.46 506.216 542.46 512.905V515.542V520.01V545.571V550.332Z" fill="black"/>
<path d="M529.496 559.561C531.254 558.73 535.575 555.654 542.46 550.332V545.571C536.405 550.454 531.522 552.896 527.812 552.896C525.077 552.896 522.66 551.748 520.561 549.453C518.461 547.109 517.411 544.18 517.411 540.664C517.411 537.881 518.241 535.317 519.901 532.974C521.562 530.63 524.32 528.384 528.178 526.235C530.326 525.015 535.087 522.939 542.46 520.01V515.542C530.937 519.741 522.685 523.306 517.704 526.235C512.772 529.165 509.306 532.29 507.304 535.61C505.839 538.003 505.106 540.835 505.106 544.106C505.106 549.282 506.596 553.457 509.574 556.631C512.602 559.805 516.435 561.392 521.073 561.392C524.052 561.392 526.859 560.781 529.496 559.561Z" fill="black"/>
<path d="M529.496 559.561C531.254 558.73 535.575 555.654 542.46 550.332V545.571C536.405 550.454 531.522 552.896 527.812 552.896C525.077 552.896 522.66 551.748 520.561 549.453C518.461 547.109 517.411 544.18 517.411 540.664C517.411 537.881 518.241 535.317 519.901 532.974C521.562 530.63 524.32 528.384 528.178 526.235C530.326 525.015 535.087 522.939 542.46 520.01V515.542C530.937 519.741 522.685 523.306 517.704 526.235C512.772 529.165 509.306 532.29 507.304 535.61C505.839 538.003 505.106 540.835 505.106 544.106C505.106 549.282 506.596 553.457 509.574 556.631C512.602 559.805 516.435 561.392 521.073 561.392C524.052 561.392 526.859 560.781 529.496 559.561Z" fill="#A8D9EE"/>
<path fill-rule="evenodd" clip-rule="evenodd" d="M480.717 542.275V498.184H468.632V542.275C468.632 547.061 468.314 550.283 467.68 551.943C467.094 553.604 465.995 554.922 464.384 555.898C462.772 556.875 460.99 557.363 459.037 557.363H456.034V560H496.098V557.363H490.019C486.991 557.363 484.574 556.289 482.768 554.141C481.4 552.48 480.717 548.525 480.717 542.275ZM480.717 492.91V488.076C480.717 477.627 481.059 471.157 481.742 468.667C482.426 466.128 483.549 464.272 485.111 463.101C486.674 461.88 488.578 461.27 490.824 461.27C492.68 461.27 494.364 461.733 495.878 462.661C497.392 463.589 499.052 465.396 500.858 468.081C502.665 470.718 504.179 472.451 505.399 473.281C506.669 474.062 507.865 474.453 508.988 474.453C510.453 474.453 511.82 473.818 513.09 472.549C514.359 471.23 514.994 469.839 514.994 468.374C514.994 465.64 513.578 463.174 510.746 460.977C506.449 457.656 501.737 455.996 496.61 455.996C491.093 455.996 486.112 457.437 481.669 460.317C477.274 463.149 474.003 466.885 471.854 471.523C469.706 476.162 468.632 481.826 468.632 488.516V492.91H480.717Z" fill="black"/>
<path d="M455.595 498.184H468.632H480.717H498.002V492.91H480.717H468.632H455.595V498.184Z" fill="black"/>
<path d="M399.125 518.179C399.076 528.14 401.493 535.952 406.376 541.616C411.259 547.28 416.996 550.112 423.588 550.112C427.982 550.112 431.791 548.916 435.014 546.523C438.285 544.082 441.02 539.932 443.217 534.072L445.487 535.537C444.462 542.227 441.483 548.33 436.552 553.848C431.62 559.316 425.443 562.051 418.021 562.051C409.965 562.051 403.056 558.926 397.294 552.676C391.581 546.377 388.725 537.93 388.725 527.334C388.725 515.859 391.654 506.924 397.514 500.527C403.422 494.082 410.819 490.859 419.706 490.859C427.226 490.859 433.402 493.35 438.236 498.33C443.07 503.262 445.487 509.878 445.487 518.179H399.125ZM399.125 513.931H430.18C429.936 509.634 429.423 506.606 428.642 504.849C427.421 502.114 425.59 499.966 423.148 498.403C420.756 496.841 418.241 496.06 415.604 496.06C411.552 496.06 407.914 497.646 404.691 500.82C401.518 503.945 399.662 508.315 399.125 513.931Z" fill="black"/>
<path fill-rule="evenodd" clip-rule="evenodd" d="M328.666 491.226L308.012 499.575L308.891 501.919C310.697 501.235 312.187 500.894 313.358 500.894C314.823 500.894 315.971 501.187 316.801 501.772C317.68 502.358 318.314 503.237 318.705 504.409C319.096 505.581 319.291 508.34 319.291 512.686V576.113C319.291 580.996 319.022 584.023 318.485 585.195C317.997 586.416 317.289 587.295 316.361 587.832C314.457 588.906 312.162 589.419 309.477 589.37H307.646V592.08H342.802V589.37C339.14 589.37 336.601 589.004 335.185 588.271C333.817 587.539 332.841 586.538 332.255 585.269C331.718 584.048 331.449 581.143 331.449 576.553V556.118V536.27V511.221V506.899V491.226H328.666Z" fill="black"/>
<path d="M341.85 494.521C338.383 496.865 334.916 500.991 331.449 506.899V511.221C335.502 506.826 338.407 504.189 340.165 503.311C342.46 502.139 344.779 501.553 347.123 501.553C351.42 501.553 355.131 503.457 358.256 507.266C362.748 512.783 364.994 520.669 364.994 530.923C364.994 539.956 363.017 546.963 359.062 551.943C356.034 555.752 352.079 557.656 347.196 557.656C343.144 557.656 339.774 556.582 337.089 554.434C334.452 552.285 332.792 549.795 332.108 546.963C331.669 545.254 331.449 541.689 331.449 536.27V556.118C333.891 558.315 336.088 559.78 338.041 560.513C340.678 561.538 343.803 562.051 347.416 562.051C355.717 562.051 362.602 558.95 368.07 552.749C374.711 545.181 378.031 535.61 378.031 524.038C378.031 513.687 375.272 505.288 369.755 498.843C365.263 493.569 359.647 490.933 352.909 490.933C349.052 490.933 345.365 492.129 341.85 494.521Z" fill="black"/>
<path d="M341.85 494.521C338.383 496.865 334.916 500.991 331.449 506.899V511.221C335.502 506.826 338.407 504.189 340.165 503.311C342.46 502.139 344.779 501.553 347.123 501.553C351.42 501.553 355.131 503.457 358.256 507.266C362.748 512.783 364.994 520.669 364.994 530.923C364.994 539.956 363.017 546.963 359.062 551.943C356.034 555.752 352.079 557.656 347.196 557.656C343.144 557.656 339.774 556.582 337.089 554.434C334.452 552.285 332.792 549.795 332.108 546.963C331.669 545.254 331.449 541.689 331.449 536.27V556.118C333.891 558.315 336.088 559.78 338.041 560.513C340.678 561.538 343.803 562.051 347.416 562.051C355.717 562.051 362.602 558.95 368.07 552.749C374.711 545.181 378.031 535.61 378.031 524.038C378.031 513.687 375.272 505.288 369.755 498.843C365.263 493.569 359.647 490.933 352.909 490.933C349.052 490.933 345.365 492.129 341.85 494.521Z" fill="#A8D9EE"/>
<path d="M234.037 492.91H265.312V495.62H263.773C261.576 495.62 259.916 496.108 258.793 497.085C257.719 498.013 257.182 499.185 257.182 500.601C257.182 502.505 257.987 505.142 259.599 508.511L275.932 542.349L290.946 505.288C291.776 503.286 292.191 501.309 292.191 499.355C292.191 498.477 292.021 497.817 291.679 497.378C291.288 496.841 290.678 496.426 289.848 496.133C289.018 495.791 287.553 495.62 285.453 495.62V492.91H307.279V495.62C305.473 495.815 304.081 496.206 303.104 496.792C302.128 497.378 301.054 498.477 299.882 500.088C299.442 500.771 298.612 502.651 297.392 505.728L270.072 572.671C267.436 579.165 263.969 584.072 259.672 587.393C255.424 590.713 251.322 592.373 247.367 592.373C244.486 592.373 242.118 591.543 240.263 589.883C238.407 588.223 237.479 586.318 237.479 584.17C237.479 582.119 238.139 580.459 239.457 579.189C240.824 577.969 242.68 577.358 245.023 577.358C246.635 577.358 248.832 577.896 251.615 578.97C253.568 579.702 254.789 580.068 255.277 580.068C256.742 580.068 258.329 579.312 260.038 577.798C261.796 576.284 263.554 573.354 265.312 569.009L270.072 557.363L245.976 506.753C245.243 505.239 244.071 503.359 242.46 501.113C241.239 499.404 240.238 498.257 239.457 497.671C238.334 496.89 236.527 496.206 234.037 495.62V492.91Z" fill="black"/>
<path d="M228.251 460.684L229.35 483.975H226.566C226.029 479.873 225.297 476.943 224.369 475.186C222.855 472.354 220.829 470.278 218.29 468.96C215.8 467.593 212.504 466.909 208.402 466.909H194.413V542.788C194.413 548.892 195.072 552.7 196.391 554.214C198.246 556.265 201.103 557.29 204.96 557.29H208.402V560H166.288V557.29H169.804C174.003 557.29 176.981 556.021 178.739 553.481C179.813 551.919 180.351 548.354 180.351 542.788V466.909H168.412C163.773 466.909 160.478 467.251 158.524 467.935C155.985 468.862 153.812 470.645 152.006 473.281C150.199 475.918 149.125 479.482 148.783 483.975H146L147.172 460.684H228.251Z" fill="black"/>
<path fill-rule="evenodd" clip-rule="evenodd" d="M959.196 411.606V421.201H962.565L982.487 412.925L981.682 410.361C979.484 411.191 977.727 411.606 976.408 411.606C975.334 411.606 974.382 411.265 973.552 410.581C972.771 409.897 972.185 408.701 971.794 406.992C971.452 405.234 971.281 400.425 971.281 392.563V315H967.985L947.99 323.203L948.942 325.767C951.042 324.985 952.727 324.595 953.996 324.595C955.168 324.595 956.145 324.912 956.926 325.547C957.707 326.182 958.269 327.378 958.61 329.136C959.001 330.894 959.196 335.605 959.196 343.271V355.649V371.909V406.479V411.606Z" fill="black"/>
<path d="M949.602 419.004C952.727 417.49 955.925 415.024 959.196 411.606V406.479C955.046 410.923 950.749 413.145 946.306 413.145C941.032 413.145 936.247 410.532 931.95 405.308C927.653 400.034 925.505 392.466 925.505 382.603C925.505 372.837 927.727 365.415 932.17 360.337C935.539 356.479 939.372 354.551 943.669 354.551C945.964 354.551 948.308 355.259 950.7 356.675C953.142 358.042 955.095 360.093 956.56 362.827C958.024 365.562 958.903 368.589 959.196 371.909V355.649C955.339 351.89 950.456 350.01 944.548 350.01C935.026 350.01 927.238 354.014 921.184 362.021C915.129 369.98 912.102 378.77 912.102 388.389C912.102 398.008 914.836 405.894 920.305 412.046C925.773 418.149 932.17 421.201 939.494 421.201C943.107 421.201 946.477 420.469 949.602 419.004Z" fill="black"/>
<path d="M949.602 419.004C952.727 417.49 955.925 415.024 959.196 411.606V406.479C955.046 410.923 950.749 413.145 946.306 413.145C941.032 413.145 936.247 410.532 931.95 405.308C927.653 400.034 925.505 392.466 925.505 382.603C925.505 372.837 927.727 365.415 932.17 360.337C935.539 356.479 939.372 354.551 943.669 354.551C945.964 354.551 948.308 355.259 950.7 356.675C953.142 358.042 955.095 360.093 956.56 362.827C958.024 365.562 958.903 368.589 959.196 371.909V355.649C955.339 351.89 950.456 350.01 944.548 350.01C935.026 350.01 927.238 354.014 921.184 362.021C915.129 369.98 912.102 378.77 912.102 388.389C912.102 398.008 914.836 405.894 920.305 412.046C925.773 418.149 932.17 421.201 939.494 421.201C943.107 421.201 946.477 420.469 949.602 419.004Z" fill="#A8D9EE"/>
<path d="M881.486 350.083V365.171C887.102 355.112 892.863 350.083 898.771 350.083C901.457 350.083 903.679 350.913 905.437 352.573C907.194 354.185 908.073 356.064 908.073 358.213C908.073 360.117 907.438 361.729 906.169 363.047C904.899 364.365 903.386 365.024 901.628 365.024C899.919 365.024 897.99 364.194 895.842 362.534C893.742 360.825 892.18 359.971 891.154 359.971C890.275 359.971 889.323 360.459 888.298 361.436C886.101 363.438 883.83 366.733 881.486 371.323V403.477C881.486 407.188 881.95 409.995 882.878 411.899C883.513 413.218 884.636 414.316 886.247 415.195C887.858 416.074 890.178 416.514 893.205 416.514V419.15H858.854V416.514C862.272 416.514 864.812 415.977 866.472 414.902C867.692 414.121 868.547 412.876 869.035 411.167C869.279 410.337 869.401 407.969 869.401 404.062V378.062C869.401 370.249 869.23 365.61 868.889 364.146C868.596 362.632 868.01 361.533 867.131 360.85C866.301 360.166 865.251 359.824 863.981 359.824C862.468 359.824 860.759 360.19 858.854 360.923L858.122 358.286L878.41 350.083H881.486Z" fill="black"/>
<path fill-rule="evenodd" clip-rule="evenodd" d="M833.22 409.482C833.269 413.486 834.001 416.318 835.417 417.979C836.833 419.639 838.737 420.469 841.13 420.469C846.11 420.469 851.335 416.807 856.804 409.482V405.381C853.874 408.311 851.896 410.093 850.871 410.728C850.285 411.069 849.602 411.24 848.82 411.24C848.088 411.24 847.429 410.996 846.843 410.508C846.306 410.02 845.915 409.067 845.671 407.651C845.427 406.187 845.305 402.256 845.305 395.859V373.081C845.305 366.587 844.865 362.29 843.986 360.19C842.619 356.968 840.495 354.6 837.614 353.086C833.806 351.084 828.923 350.083 822.966 350.083C815.202 350.083 809.172 351.841 804.875 355.356C800.578 358.872 798.43 362.729 798.43 366.929C798.43 369.126 798.991 370.859 800.114 372.129C801.286 373.398 802.775 374.033 804.582 374.033C806.438 374.033 807.927 373.423 809.05 372.202C810.222 370.981 810.808 369.248 810.808 367.002L810.661 362.754C810.661 360.605 811.589 358.701 813.444 357.041C815.251 355.381 817.692 354.551 820.769 354.551C824.821 354.551 827.897 355.796 829.997 358.286C832.146 360.776 833.22 365.366 833.22 372.056V374.692V379.16V404.722V409.482Z" fill="black"/>
<path d="M820.256 418.711C822.014 417.881 826.335 414.805 833.22 409.482V404.722C827.165 409.604 822.282 412.046 818.571 412.046C815.837 412.046 813.42 410.898 811.32 408.604C809.221 406.26 808.171 403.33 808.171 399.814C808.171 397.031 809.001 394.468 810.661 392.124C812.321 389.78 815.08 387.534 818.938 385.386C821.086 384.165 825.847 382.09 833.22 379.16V374.692C821.696 378.892 813.444 382.456 808.464 385.386C803.532 388.315 800.065 391.44 798.063 394.761C796.599 397.153 795.866 399.985 795.866 403.257C795.866 408.433 797.355 412.607 800.334 415.781C803.361 418.955 807.194 420.542 811.833 420.542C814.812 420.542 817.619 419.932 820.256 418.711Z" fill="black"/>
<path d="M820.256 418.711C822.014 417.881 826.335 414.805 833.22 409.482V404.722C827.165 409.604 822.282 412.046 818.571 412.046C815.837 412.046 813.42 410.898 811.32 408.604C809.221 406.26 808.171 403.33 808.171 399.814C808.171 397.031 809.001 394.468 810.661 392.124C812.321 389.78 815.08 387.534 818.938 385.386C821.086 384.165 825.847 382.09 833.22 379.16V374.692C821.696 378.892 813.444 382.456 808.464 385.386C803.532 388.315 800.065 391.44 798.063 394.761C796.599 397.153 795.866 399.985 795.866 403.257C795.866 408.433 797.355 412.607 800.334 415.781C803.361 418.955 807.194 420.542 811.833 420.542C814.812 420.542 817.619 419.932 820.256 418.711Z" fill="#A8D9EE"/>
<path d="M767.595 411.606C764.323 415.024 761.125 417.49 758 419.004C754.875 420.469 751.506 421.201 747.893 421.201C740.568 421.201 734.172 418.149 728.703 412.046C723.234 405.894 720.5 398.008 720.5 388.389C720.5 378.77 723.527 369.98 729.582 362.021C735.637 354.014 743.425 350.01 752.946 350.01C758.854 350.01 763.737 351.89 767.595 355.649V343.271C767.595 335.605 767.399 330.894 767.009 329.136C766.667 327.378 766.105 326.182 765.324 325.547C764.543 324.912 763.566 324.595 762.395 324.595C761.125 324.595 759.44 324.985 757.341 325.767L756.389 323.203L776.384 315H779.68V392.563C779.68 400.425 779.851 405.234 780.192 406.992C780.583 408.701 781.169 409.897 781.95 410.581C782.78 411.265 783.732 411.606 784.807 411.606C786.125 411.606 787.883 411.191 790.08 410.361L790.886 412.925L770.964 421.201H767.595V411.606ZM767.595 406.479V371.909C767.302 368.589 766.423 365.562 764.958 362.827C763.493 360.093 761.54 358.042 759.099 356.675C756.706 355.259 754.362 354.551 752.067 354.551C747.771 354.551 743.938 356.479 740.568 360.337C736.125 365.415 733.903 372.837 733.903 382.603C733.903 392.466 736.052 400.034 740.349 405.308C744.646 410.532 749.431 413.145 754.704 413.145C759.147 413.145 763.444 410.923 767.595 406.479Z" fill="black"/>
<path d="M664.763 364.292C672.624 354.819 680.119 350.083 687.248 350.083C690.91 350.083 694.06 351.011 696.696 352.866C699.333 354.673 701.433 357.676 702.995 361.875C704.069 364.805 704.606 369.297 704.606 375.352V403.989C704.606 408.237 704.948 411.118 705.632 412.632C706.169 413.853 707.023 414.805 708.195 415.488C709.416 416.172 711.638 416.514 714.86 416.514V419.15H681.682V416.514H683.073C686.198 416.514 688.371 416.05 689.592 415.122C690.861 414.146 691.74 412.729 692.229 410.874C692.424 410.142 692.521 407.847 692.521 403.989V376.523C692.521 370.42 691.716 366.001 690.104 363.267C688.542 360.483 685.881 359.092 682.121 359.092C676.311 359.092 670.524 362.266 664.763 368.613V403.989C664.763 408.53 665.031 411.338 665.568 412.412C666.252 413.828 667.18 414.878 668.352 415.562C669.572 416.196 672.014 416.514 675.676 416.514V419.15H642.497V416.514H643.962C647.38 416.514 649.675 415.659 650.847 413.95C652.067 412.192 652.678 408.872 652.678 403.989V379.087C652.678 371.03 652.482 366.123 652.092 364.365C651.75 362.607 651.188 361.411 650.407 360.776C649.675 360.142 648.674 359.824 647.404 359.824C646.037 359.824 644.401 360.19 642.497 360.923L641.398 358.286L661.613 350.083H664.763V364.292Z" fill="black"/>
<path fill-rule="evenodd" clip-rule="evenodd" d="M616.569 409.482C616.618 413.486 617.351 416.318 618.767 417.979C620.183 419.639 622.087 420.469 624.479 420.469C629.46 420.469 634.685 416.807 640.153 409.482V405.381C637.224 408.311 635.246 410.093 634.221 410.728C633.635 411.069 632.951 411.24 632.17 411.24C631.438 411.24 630.778 410.996 630.192 410.508C629.655 410.02 629.265 409.067 629.021 407.651C628.776 406.187 628.654 402.256 628.654 395.859V373.081C628.654 366.587 628.215 362.29 627.336 360.19C625.969 356.968 623.845 354.6 620.964 353.086C617.155 351.084 612.272 350.083 606.315 350.083C598.552 350.083 592.521 351.841 588.225 355.356C583.928 358.872 581.779 362.729 581.779 366.929C581.779 369.126 582.341 370.859 583.464 372.129C584.636 373.398 586.125 374.033 587.932 374.033C589.787 374.033 591.276 373.423 592.399 372.202C593.571 370.981 594.157 369.248 594.157 367.002L594.011 362.754C594.011 360.605 594.938 358.701 596.794 357.041C598.601 355.381 601.042 354.551 604.118 354.551C608.171 354.551 611.247 355.796 613.347 358.286C615.495 360.776 616.569 365.366 616.569 372.056V374.692V379.16V404.722V409.482Z" fill="black"/>
<path d="M603.605 418.711C605.363 417.881 609.685 414.805 616.569 409.482V404.722C610.515 409.604 605.632 412.046 601.921 412.046C599.187 412.046 596.77 410.898 594.67 408.604C592.57 406.26 591.521 403.33 591.521 399.814C591.521 397.031 592.351 394.468 594.011 392.124C595.671 389.78 598.43 387.534 602.287 385.386C604.436 384.165 609.196 382.09 616.569 379.16V374.692C605.046 378.892 596.794 382.456 591.813 385.386C586.882 388.315 583.415 391.44 581.413 394.761C579.948 397.153 579.216 399.985 579.216 403.257C579.216 408.433 580.705 412.607 583.684 415.781C586.711 418.955 590.544 420.542 595.183 420.542C598.161 420.542 600.969 419.932 603.605 418.711Z" fill="black"/>
<path d="M603.605 418.711C605.363 417.881 609.685 414.805 616.569 409.482V404.722C610.515 409.604 605.632 412.046 601.921 412.046C599.187 412.046 596.77 410.898 594.67 408.604C592.57 406.26 591.521 403.33 591.521 399.814C591.521 397.031 592.351 394.468 594.011 392.124C595.671 389.78 598.43 387.534 602.287 385.386C604.436 384.165 609.196 382.09 616.569 379.16V374.692C605.046 378.892 596.794 382.456 591.813 385.386C586.882 388.315 583.415 391.44 581.413 394.761C579.948 397.153 579.216 399.985 579.216 403.257C579.216 408.433 580.705 412.607 583.684 415.781C586.711 418.955 590.544 420.542 595.183 420.542C598.161 420.542 600.969 419.932 603.605 418.711Z" fill="#A8D9EE"/>
<path d="M556.291 330.015V352.061H571.965V357.188H556.291V400.693C556.291 405.039 556.901 407.969 558.122 409.482C559.392 410.996 561.003 411.753 562.956 411.753C564.567 411.753 566.13 411.265 567.644 410.288C569.157 409.263 570.329 407.773 571.159 405.82H574.016C572.307 410.605 569.89 414.219 566.765 416.66C563.64 419.053 560.417 420.249 557.097 420.249C554.851 420.249 552.653 419.639 550.505 418.418C548.356 417.148 546.77 415.366 545.744 413.071C544.719 410.728 544.206 407.139 544.206 402.305V357.188H533.586V354.771C536.271 353.696 539.006 351.89 541.789 349.351C544.621 346.763 547.136 343.711 549.333 340.195C550.456 338.34 552.019 334.946 554.021 330.015H556.291Z" fill="black"/>
<path d="M517.399 317.563V351.914H514.689C513.811 345.322 512.224 340.073 509.929 336.167C507.683 332.261 504.46 329.16 500.261 326.865C496.062 324.57 491.716 323.423 487.224 323.423C482.146 323.423 477.946 324.985 474.626 328.11C471.306 331.187 469.646 334.702 469.646 338.657C469.646 341.685 470.695 344.443 472.795 346.934C475.822 350.596 483.024 355.479 494.401 361.582C503.679 366.562 510.002 370.396 513.371 373.081C516.789 375.718 519.401 378.843 521.208 382.456C523.063 386.069 523.991 389.854 523.991 393.809C523.991 401.328 521.062 407.822 515.202 413.291C509.392 418.711 501.896 421.421 492.717 421.421C489.836 421.421 487.126 421.201 484.587 420.762C483.073 420.518 479.924 419.639 475.139 418.125C470.402 416.562 467.399 415.781 466.13 415.781C464.909 415.781 463.933 416.147 463.2 416.88C462.517 417.612 462.004 419.126 461.662 421.421H458.952V387.363H461.662C462.932 394.492 464.641 399.839 466.789 403.403C468.938 406.919 472.209 409.849 476.604 412.192C481.047 414.536 485.905 415.708 491.179 415.708C497.282 415.708 502.092 414.097 505.607 410.874C509.172 407.651 510.954 403.843 510.954 399.448C510.954 397.007 510.271 394.541 508.903 392.051C507.585 389.561 505.51 387.241 502.678 385.093C500.773 383.628 495.573 380.527 487.077 375.791C478.581 371.006 472.526 367.197 468.913 364.365C465.349 361.533 462.639 358.408 460.783 354.99C458.928 351.572 458 347.812 458 343.711C458 336.582 460.734 330.454 466.203 325.327C471.672 320.151 478.63 317.563 487.077 317.563C492.351 317.563 497.941 318.857 503.85 321.445C506.584 322.666 508.513 323.276 509.636 323.276C510.905 323.276 511.931 322.91 512.712 322.178C513.542 321.396 514.201 319.858 514.689 317.563H517.399Z" fill="black"/>
</svg>
