<svg width="1440" height="1024" viewBox="0 0 1440 1024" fill="none" xmlns="http://www.w3.org/2000/svg">
<rect width="1440" height="1024" fill="white"/>
<path d="M1221.63 492.91H1252.91V495.62H1251.37C1249.17 495.62 1247.51 496.108 1246.39 497.085C1245.32 498.013 1244.78 499.185 1244.78 500.601C1244.78 502.505 1245.58 505.142 1247.2 508.511L1263.53 542.349L1278.54 505.288C1279.37 503.286 1279.79 501.309 1279.79 499.355C1279.79 498.477 1279.62 497.817 1279.28 497.378C1278.89 496.841 1278.28 496.426 1277.45 496.133C1276.62 495.791 1275.15 495.62 1273.05 495.62V492.91H1294.88V495.62C1293.07 495.815 1291.68 496.206 1290.7 496.792C1289.73 497.378 1288.65 498.477 1287.48 500.088C1287.04 500.771 1286.21 502.651 1284.99 505.728L1257.67 572.671C1255.03 579.165 1251.57 584.072 1247.27 587.393C1243.02 590.713 1238.92 592.373 1234.96 592.373C1232.08 592.373 1229.72 591.543 1227.86 589.883C1226 588.223 1225.08 586.318 1225.08 584.17C1225.08 582.119 1225.74 580.459 1227.05 579.189C1228.42 577.969 1230.28 577.358 1232.62 577.358C1234.23 577.358 1236.43 577.896 1239.21 578.97C1241.17 579.702 1242.39 580.068 1242.88 580.068C1244.34 580.068 1245.93 579.312 1247.64 577.798C1249.39 576.284 1251.15 573.354 1252.91 569.009L1257.67 557.363L1233.57 506.753C1232.84 505.239 1231.67 503.359 1230.06 501.113C1228.84 499.404 1227.84 498.257 1227.05 497.671C1225.93 496.89 1224.12 496.206 1221.63 495.62V492.91Z" fill="black"/>
<path fill-rule="evenodd" clip-rule="evenodd" d="M1137.26 496.792C1136.38 497.524 1133.5 500.332 1128.62 505.215V508.877C1130.81 506.191 1133.94 503.774 1137.99 501.626C1140.58 500.21 1143.19 499.502 1145.83 499.502C1149.69 499.502 1152.69 501.064 1154.84 504.189C1156.45 506.582 1157.25 510.513 1157.25 515.981V544.839C1157.25 548.843 1157.13 551.26 1156.89 552.09C1156.35 553.848 1155.38 555.166 1153.96 556.045C1152.59 556.924 1150.05 557.363 1146.34 557.363V560H1180.25V557.363C1176.83 557.363 1174.42 556.997 1173 556.265C1171.59 555.483 1170.61 554.531 1170.07 553.408C1169.58 552.285 1169.34 549.429 1169.34 544.839V512.832L1169.19 509.683L1169.34 508.877C1173.05 505.361 1176.2 502.969 1178.79 501.699C1181.42 500.381 1184.04 499.722 1186.62 499.722C1190.82 499.722 1193.88 501.284 1195.78 504.409C1197.1 506.655 1197.76 510.513 1197.76 515.981V544.839C1197.76 548.745 1197.66 551.113 1197.46 551.943C1196.98 553.652 1196.17 554.897 1195.05 555.679C1193.44 556.802 1191.19 557.363 1188.31 557.363H1186.92V560H1220.02V557.363C1217.04 557.363 1214.9 556.997 1213.58 556.265C1212.26 555.483 1211.36 554.556 1210.87 553.481C1210.23 551.919 1209.92 549.038 1209.92 544.839V515.981C1209.92 509.927 1209.38 505.483 1208.3 502.651C1206.69 498.501 1204.5 495.522 1201.71 493.716C1198.98 491.86 1195.83 490.933 1192.26 490.933C1188.6 490.933 1185.04 491.86 1181.57 493.716C1178.1 495.522 1173.86 499.355 1168.83 505.215C1167.8 500.576 1165.78 497.036 1162.75 494.595C1159.72 492.153 1156.11 490.933 1151.91 490.933C1149.42 490.933 1146.9 491.445 1144.36 492.471C1141.83 493.496 1139.46 494.937 1137.26 496.792Z" fill="black"/>
<path d="M1128.62 544.839V508.877V505.215V490.933H1125.47L1105.25 499.136L1106.35 501.772C1108.26 501.04 1109.89 500.674 1111.26 500.674C1112.53 500.674 1113.53 500.991 1114.26 501.626C1114.99 502.212 1115.53 503.311 1115.87 504.922C1116.31 507.07 1116.53 511.831 1116.53 519.204V544.839C1116.53 548.989 1116.21 551.797 1115.58 553.262C1114.95 554.678 1114.02 555.728 1112.8 556.411C1111.58 557.046 1109.43 557.363 1106.35 557.363V560H1139.53V557.363C1135.87 557.363 1133.43 557.046 1132.21 556.411C1131.03 555.728 1130.13 554.727 1129.5 553.408C1128.91 552.09 1128.62 549.233 1128.62 544.839Z" fill="black"/>
<path d="M1128.62 544.839V508.877V505.215V490.933H1125.47L1105.25 499.136L1106.35 501.772C1108.26 501.04 1109.89 500.674 1111.26 500.674C1112.53 500.674 1113.53 500.991 1114.26 501.626C1114.99 502.212 1115.53 503.311 1115.87 504.922C1116.31 507.07 1116.53 511.831 1116.53 519.204V544.839C1116.53 548.989 1116.21 551.797 1115.58 553.262C1114.95 554.678 1114.02 555.728 1112.8 556.411C1111.58 557.046 1109.43 557.363 1106.35 557.363V560H1139.53V557.363C1135.87 557.363 1133.43 557.046 1132.21 556.411C1131.03 555.728 1130.13 554.727 1129.5 553.408C1128.91 552.09 1128.62 549.233 1128.62 544.839Z" fill="#A8D9EE"/>
<path d="M1066.51 490.933C1076.66 490.933 1084.82 494.79 1090.97 502.505C1096.2 509.097 1098.81 516.665 1098.81 525.21C1098.81 531.216 1097.37 537.295 1094.49 543.447C1091.61 549.6 1087.63 554.238 1082.55 557.363C1077.52 560.488 1071.9 562.051 1065.7 562.051C1055.59 562.051 1047.56 558.022 1041.61 549.966C1036.58 543.179 1034.06 535.562 1034.06 527.114C1034.06 520.962 1035.58 514.858 1038.6 508.804C1041.68 502.7 1045.71 498.208 1050.69 495.327C1055.67 492.397 1060.94 490.933 1066.51 490.933ZM1064.24 495.693C1061.65 495.693 1059.04 496.475 1056.4 498.037C1053.81 499.551 1051.71 502.236 1050.1 506.094C1048.49 509.951 1047.68 514.907 1047.68 520.962C1047.68 530.728 1049.61 539.15 1053.47 546.23C1057.38 553.311 1062.5 556.851 1068.85 556.851C1073.59 556.851 1077.49 554.897 1080.57 550.991C1083.65 547.085 1085.18 540.371 1085.18 530.85C1085.18 518.936 1082.62 509.561 1077.49 502.725C1074.03 498.037 1069.61 495.693 1064.24 495.693Z" fill="black"/>
<path fill-rule="evenodd" clip-rule="evenodd" d="M1027.1 492.91H1011.43V498.037H1027.1V492.91ZM1013.26 550.332C1012.04 548.818 1011.43 545.889 1011.43 541.543V561.072C1011.7 561.09 1011.97 561.099 1012.24 561.099C1015.56 561.099 1018.78 559.902 1021.9 557.51C1025.03 555.068 1027.45 551.455 1029.15 546.67H1026.3C1025.47 548.623 1024.3 550.112 1022.78 551.138C1021.27 552.114 1019.71 552.603 1018.09 552.603C1016.14 552.603 1014.53 551.846 1013.26 550.332ZM988.725 498.037H999.345V487.796C998.567 488.637 997.761 489.439 996.928 490.2C994.145 492.739 991.41 494.546 988.725 495.62V498.037Z" fill="black"/>
<path d="M1011.43 492.91V470.864H1009.16C1007.16 475.796 1005.59 479.189 1004.47 481.045C1002.92 483.526 1001.21 485.777 999.345 487.796V498.037V543.154C999.345 547.988 999.857 551.577 1000.88 553.921C1001.91 556.216 1003.5 557.998 1005.64 559.268C1007.53 560.342 1009.46 560.944 1011.43 561.072V541.543V498.037V492.91Z" fill="black"/>
<path d="M1011.43 492.91V470.864H1009.16C1007.16 475.796 1005.59 479.189 1004.47 481.045C1002.92 483.526 1001.21 485.777 999.345 487.796V498.037V543.154C999.345 547.988 999.857 551.577 1000.88 553.921C1001.91 556.216 1003.5 557.998 1005.64 559.268C1007.53 560.342 1009.46 560.944 1011.43 561.072V541.543V498.037V492.91Z" fill="#A8D9EE"/>
<path d="M963.31 550.332C956.425 555.654 952.104 558.73 950.346 559.561C947.709 560.781 944.901 561.392 941.923 561.392C937.284 561.392 933.451 559.805 930.424 556.631C927.445 553.457 925.956 549.282 925.956 544.106C925.956 540.835 926.688 538.003 928.153 535.61C930.155 532.29 933.622 529.165 938.554 526.235C943.534 523.306 951.786 519.741 963.31 515.542V512.905C963.31 506.216 962.235 501.626 960.087 499.136C957.987 496.646 954.911 495.4 950.858 495.4C947.782 495.4 945.341 496.23 943.534 497.891C941.679 499.551 940.751 501.455 940.751 503.604L940.897 507.852C940.897 510.098 940.312 511.831 939.14 513.052C938.017 514.272 936.527 514.883 934.672 514.883C932.865 514.883 931.376 514.248 930.204 512.979C929.081 511.709 928.52 509.976 928.52 507.778C928.52 503.579 930.668 499.722 934.965 496.206C939.262 492.69 945.292 490.933 953.056 490.933C959.013 490.933 963.896 491.934 967.704 493.936C970.585 495.449 972.709 497.817 974.076 501.04C974.955 503.14 975.395 507.437 975.395 513.931V536.709C975.395 543.105 975.517 547.036 975.761 548.501C976.005 549.917 976.396 550.869 976.933 551.357C977.519 551.846 978.178 552.09 978.91 552.09C979.691 552.09 980.375 551.919 980.961 551.577C981.986 550.942 983.964 549.16 986.894 546.23V550.332C981.425 557.656 976.2 561.318 971.22 561.318C968.827 561.318 966.923 560.488 965.507 558.828C964.091 557.168 963.358 554.336 963.31 550.332ZM963.31 545.571V520.01C955.937 522.939 951.176 525.015 949.027 526.235C945.17 528.384 942.411 530.63 940.751 532.974C939.091 535.317 938.261 537.881 938.261 540.664C938.261 544.18 939.311 547.109 941.41 549.453C943.51 551.748 945.927 552.896 948.661 552.896C952.372 552.896 957.255 550.454 963.31 545.571Z" fill="black"/>
<path fill-rule="evenodd" clip-rule="evenodd" d="M892.338 490.933C885.209 490.933 877.714 495.669 869.853 505.142V509.463C875.614 503.115 881.4 499.941 887.211 499.941C890.971 499.941 893.632 501.333 895.194 504.116C896.806 506.851 897.611 511.27 897.611 517.373V544.839C897.611 548.696 897.514 550.991 897.318 551.724C896.83 553.579 895.951 554.995 894.682 555.972C893.461 556.899 891.288 557.363 888.163 557.363H886.771V560H919.95V557.363C916.728 557.363 914.506 557.021 913.285 556.338C912.113 555.654 911.259 554.702 910.722 553.481C910.038 551.968 909.696 549.087 909.696 544.839V516.201C909.696 510.146 909.159 505.654 908.085 502.725C906.522 498.525 904.423 495.522 901.786 493.716C899.149 491.86 896 490.933 892.338 490.933Z" fill="black"/>
<path d="M869.853 544.839V509.463V505.142V490.933H866.703L846.488 499.136L847.587 501.772C849.491 501.04 851.127 500.674 852.494 500.674C853.764 500.674 854.765 500.991 855.497 501.626C856.278 502.261 856.84 503.457 857.182 505.215C857.572 506.973 857.768 511.88 857.768 519.937V544.839C857.768 549.722 857.157 553.042 855.937 554.8C854.765 556.509 852.47 557.363 849.052 557.363H847.587V560H880.766V557.363C877.104 557.363 874.662 557.046 873.441 556.411C872.27 555.728 871.342 554.678 870.658 553.262C870.121 552.188 869.853 549.38 869.853 544.839Z" fill="black"/>
<path d="M869.853 544.839V509.463V505.142V490.933H866.703L846.488 499.136L847.587 501.772C849.491 501.04 851.127 500.674 852.494 500.674C853.764 500.674 854.765 500.991 855.497 501.626C856.278 502.261 856.84 503.457 857.182 505.215C857.572 506.973 857.768 511.88 857.768 519.937V544.839C857.768 549.722 857.157 553.042 855.937 554.8C854.765 556.509 852.47 557.363 849.052 557.363H847.587V560H880.766V557.363C877.104 557.363 874.662 557.046 873.441 556.411C872.27 555.728 871.342 554.678 870.658 553.262C870.121 552.188 869.853 549.38 869.853 544.839Z" fill="#A8D9EE"/>
<path fill-rule="evenodd" clip-rule="evenodd" d="M767.387 526.748H805.839L811.845 541.03C813.798 545.669 814.774 549.062 814.774 551.211C814.774 552.822 814.066 554.189 812.65 555.312C811.283 556.436 808.622 557.095 804.667 557.29V560H843.852V557.29C839.799 557.046 836.625 555.947 834.33 553.994C832.084 551.992 829.569 547.671 826.786 541.03L794.459 463.774L786.942 481.191L803.788 521.328H769.657L767.387 526.748ZM758.158 551.064L750.998 548C749.39 550.942 747.87 553.087 746.439 554.434C745.219 555.605 742.533 556.558 738.383 557.29V560H769.657V557.29C764.872 556.948 761.747 556.216 760.282 555.093C758.866 553.921 758.158 552.578 758.158 551.064Z" fill="black"/>
<path d="M760.648 542.422L767.387 526.748L769.657 521.328L786.942 481.191L794.459 463.774L792.216 458.413H789.652L754.716 540.151C753.428 543.205 752.189 545.821 750.998 548L758.158 551.064C758.158 549.16 758.988 546.279 760.648 542.422Z" fill="#A8D9EE"/>
<path d="M649.027 518.179C648.979 528.14 651.396 535.952 656.278 541.616C661.161 547.28 666.898 550.112 673.49 550.112C677.885 550.112 681.693 548.916 684.916 546.523C688.188 544.082 690.922 539.932 693.119 534.072L695.39 535.537C694.364 542.227 691.386 548.33 686.454 553.848C681.522 559.316 675.346 562.051 667.924 562.051C659.867 562.051 652.958 558.926 647.196 552.676C641.483 546.377 638.627 537.93 638.627 527.334C638.627 515.859 641.557 506.924 647.416 500.527C653.324 494.082 660.722 490.859 669.608 490.859C677.128 490.859 683.305 493.35 688.139 498.33C692.973 503.262 695.39 509.878 695.39 518.179H649.027ZM649.027 513.931H680.082C679.838 509.634 679.325 506.606 678.544 504.849C677.323 502.114 675.492 499.966 673.051 498.403C670.658 496.841 668.144 496.06 665.507 496.06C661.454 496.06 657.816 497.646 654.594 500.82C651.42 503.945 649.564 508.315 649.027 513.931Z" fill="black"/>
<path d="M628.08 534.512C626.273 543.35 622.733 550.161 617.46 554.946C612.187 559.683 606.352 562.051 599.955 562.051C592.338 562.051 585.697 558.853 580.033 552.456C574.369 546.06 571.537 537.417 571.537 526.528C571.537 515.981 574.662 507.412 580.912 500.82C587.211 494.229 594.755 490.933 603.544 490.933C610.136 490.933 615.556 492.69 619.804 496.206C624.052 499.673 626.176 503.286 626.176 507.046C626.176 508.901 625.565 510.415 624.345 511.587C623.173 512.71 621.513 513.271 619.364 513.271C616.483 513.271 614.311 512.344 612.846 510.488C612.016 509.463 611.454 507.51 611.161 504.629C610.917 501.748 609.94 499.551 608.231 498.037C606.522 496.572 604.154 495.84 601.127 495.84C596.244 495.84 592.313 497.646 589.335 501.26C585.38 506.045 583.402 512.368 583.402 520.229C583.402 528.237 585.355 535.317 589.262 541.47C593.217 547.573 598.539 550.625 605.229 550.625C610.014 550.625 614.311 548.989 618.119 545.718C620.805 543.472 623.417 539.395 625.956 533.486L628.08 534.512Z" fill="black"/>
<path d="M542.46 550.332C535.575 555.654 531.254 558.73 529.496 559.561C526.859 560.781 524.052 561.392 521.073 561.392C516.435 561.392 512.602 559.805 509.574 556.631C506.596 553.457 505.106 549.282 505.106 544.106C505.106 540.835 505.839 538.003 507.304 535.61C509.306 532.29 512.772 529.165 517.704 526.235C522.685 523.306 530.937 519.741 542.46 515.542V512.905C542.46 506.216 541.386 501.626 539.237 499.136C537.138 496.646 534.062 495.4 530.009 495.4C526.933 495.4 524.491 496.23 522.685 497.891C520.829 499.551 519.901 501.455 519.901 503.604L520.048 507.852C520.048 510.098 519.462 511.831 518.29 513.052C517.167 514.272 515.678 514.883 513.822 514.883C512.016 514.883 510.526 514.248 509.354 512.979C508.231 511.709 507.67 509.976 507.67 507.778C507.67 503.579 509.818 499.722 514.115 496.206C518.412 492.69 524.442 490.933 532.206 490.933C538.163 490.933 543.046 491.934 546.854 493.936C549.735 495.449 551.859 497.817 553.227 501.04C554.105 503.14 554.545 507.437 554.545 513.931V536.709C554.545 543.105 554.667 547.036 554.911 548.501C555.155 549.917 555.546 550.869 556.083 551.357C556.669 551.846 557.328 552.09 558.061 552.09C558.842 552.09 559.525 551.919 560.111 551.577C561.137 550.942 563.114 549.16 566.044 546.23V550.332C560.575 557.656 555.351 561.318 550.37 561.318C547.978 561.318 546.073 560.488 544.657 558.828C543.241 557.168 542.509 554.336 542.46 550.332ZM542.46 545.571V520.01C535.087 522.939 530.326 525.015 528.178 526.235C524.32 528.384 521.562 530.63 519.901 532.974C518.241 535.317 517.411 537.881 517.411 540.664C517.411 544.18 518.461 547.109 520.561 549.453C522.66 551.748 525.077 552.896 527.812 552.896C531.522 552.896 536.405 550.454 542.46 545.571Z" fill="black"/>
<path fill-rule="evenodd" clip-rule="evenodd" d="M480.717 498.184H498.002V492.91H480.717V498.184ZM455.595 498.184H468.632V492.91H455.595V498.184ZM471.854 471.523H481.267C481.401 470.286 481.559 469.334 481.742 468.667C482.426 466.128 483.549 464.272 485.111 463.101C486.674 461.88 488.578 461.27 490.824 461.27C492.68 461.27 494.364 461.733 495.878 462.661C497.392 463.589 499.052 465.396 500.858 468.081C502.665 470.718 504.179 472.451 505.399 473.281C506.669 474.062 507.865 474.453 508.988 474.453C510.453 474.453 511.82 473.818 513.09 472.549C514.359 471.23 514.994 469.839 514.994 468.374C514.994 465.64 513.578 463.174 510.746 460.977C506.449 457.656 501.737 455.996 496.61 455.996C491.093 455.996 486.112 457.437 481.669 460.317C477.274 463.149 474.003 466.885 471.854 471.523Z" fill="black"/>
<path d="M480.717 542.275V498.184V492.91V488.076C480.717 480.425 480.9 474.907 481.267 471.523H471.854C469.706 476.162 468.632 481.826 468.632 488.516V492.91V498.184V542.275C468.632 547.061 468.314 550.283 467.68 551.943C467.094 553.604 465.995 554.922 464.384 555.898C462.772 556.875 460.99 557.363 459.037 557.363H456.034V560H496.098V557.363H490.019C486.991 557.363 484.574 556.289 482.768 554.141C481.4 552.48 480.717 548.525 480.717 542.275Z" fill="#A8D9EE"/>
<path d="M399.125 518.179C399.076 528.14 401.493 535.952 406.376 541.616C411.259 547.28 416.996 550.112 423.588 550.112C427.982 550.112 431.791 548.916 435.014 546.523C438.285 544.082 441.02 539.932 443.217 534.072L445.487 535.537C444.462 542.227 441.483 548.33 436.552 553.848C431.62 559.316 425.443 562.051 418.021 562.051C409.965 562.051 403.056 558.926 397.294 552.676C391.581 546.377 388.725 537.93 388.725 527.334C388.725 515.859 391.654 506.924 397.514 500.527C403.422 494.082 410.819 490.859 419.706 490.859C427.226 490.859 433.402 493.35 438.236 498.33C443.07 503.262 445.487 509.878 445.487 518.179H399.125ZM399.125 513.931H430.18C429.936 509.634 429.423 506.606 428.642 504.849C427.421 502.114 425.59 499.966 423.148 498.403C420.756 496.841 418.241 496.06 415.604 496.06C411.552 496.06 407.914 497.646 404.691 500.82C401.518 503.945 399.662 508.315 399.125 513.931Z" fill="black"/>
<path fill-rule="evenodd" clip-rule="evenodd" d="M331.449 556.118C333.891 558.315 336.088 559.78 338.041 560.513C340.678 561.538 343.803 562.051 347.416 562.051C355.717 562.051 362.602 558.95 368.07 552.749C374.711 545.181 378.031 535.61 378.031 524.038C378.031 513.687 375.272 505.288 369.755 498.843C365.263 493.569 359.647 490.933 352.909 490.933C349.052 490.933 345.365 492.129 341.85 494.521C338.383 496.865 334.916 500.991 331.449 506.899V511.221C335.502 506.826 338.407 504.189 340.165 503.311C342.46 502.139 344.779 501.553 347.123 501.553C351.42 501.553 355.131 503.457 358.256 507.266C362.748 512.783 364.994 520.669 364.994 530.923C364.994 539.956 363.017 546.963 359.062 551.943C356.034 555.752 352.079 557.656 347.196 557.656C343.144 557.656 339.774 556.582 337.089 554.434C334.452 552.285 332.792 549.795 332.108 546.963C331.669 545.254 331.449 541.689 331.449 536.27V556.118Z" fill="black"/>
<path d="M328.666 491.226L308.012 499.575L308.891 501.919C310.697 501.235 312.187 500.894 313.358 500.894C314.823 500.894 315.971 501.187 316.801 501.772C317.68 502.358 318.314 503.237 318.705 504.409C319.096 505.581 319.291 508.34 319.291 512.686V576.113C319.291 580.996 319.022 584.023 318.485 585.195C317.997 586.416 317.289 587.295 316.361 587.832C314.457 588.906 312.162 589.419 309.477 589.37H307.646V592.08H342.802V589.37C339.14 589.37 336.601 589.004 335.185 588.271C333.817 587.539 332.841 586.538 332.255 585.269C331.718 584.048 331.449 581.143 331.449 576.553V556.118V536.27V511.221V506.899V491.226H328.666Z" fill="#A8D9EE"/>
<path d="M234.037 492.91H265.312V495.62H263.773C261.576 495.62 259.916 496.108 258.793 497.085C257.719 498.013 257.182 499.185 257.182 500.601C257.182 502.505 257.987 505.142 259.599 508.511L275.932 542.349L290.946 505.288C291.776 503.286 292.191 501.309 292.191 499.355C292.191 498.477 292.021 497.817 291.679 497.378C291.288 496.841 290.678 496.426 289.848 496.133C289.018 495.791 287.553 495.62 285.453 495.62V492.91H307.279V495.62C305.473 495.815 304.081 496.206 303.104 496.792C302.128 497.378 301.054 498.477 299.882 500.088C299.442 500.771 298.612 502.651 297.392 505.728L270.072 572.671C267.436 579.165 263.969 584.072 259.672 587.393C255.424 590.713 251.322 592.373 247.367 592.373C244.486 592.373 242.118 591.543 240.263 589.883C238.407 588.223 237.479 586.318 237.479 584.17C237.479 582.119 238.139 580.459 239.457 579.189C240.824 577.969 242.68 577.358 245.023 577.358C246.635 577.358 248.832 577.896 251.615 578.97C253.568 579.702 254.789 580.068 255.277 580.068C256.742 580.068 258.329 579.312 260.038 577.798C261.796 576.284 263.554 573.354 265.312 569.009L270.072 557.363L245.976 506.753C245.243 505.239 244.071 503.359 242.46 501.113C241.239 499.404 240.238 498.257 239.457 497.671C238.334 496.89 236.527 496.206 234.037 495.62V492.91Z" fill="black"/>
<path fill-rule="evenodd" clip-rule="evenodd" d="M229.35 483.975L228.251 460.684H194.413V466.909H208.402C212.504 466.909 215.8 467.593 218.29 468.96C220.829 470.278 222.855 472.354 224.369 475.186C225.297 476.943 226.029 479.873 226.566 483.975H229.35ZM180.351 460.684H147.172L146 483.975H148.783C149.125 479.482 150.199 475.918 152.006 473.281C153.812 470.645 155.985 468.862 158.524 467.935C160.478 467.251 163.773 466.909 168.412 466.909H180.351V460.684ZM196.391 554.214C195.072 552.7 194.413 548.892 194.413 542.788L194.376 560H208.402V557.29H204.96C201.103 557.29 198.246 556.265 196.391 554.214ZM166.288 560H180.351V542.788C180.351 548.354 179.813 551.919 178.739 553.481C176.981 556.021 174.003 557.29 169.804 557.29H166.288V560Z" fill="black"/>
<path d="M194.413 460.684H180.351V466.909H194.413V460.684Z" fill="black"/>
<path fill-rule="evenodd" clip-rule="evenodd" d="M194.413 542.788V466.909H180.351V542.788H194.413Z" fill="black"/>
<path fill-rule="evenodd" clip-rule="evenodd" d="M194.413 542.788V466.909H180.351V542.788H194.413Z" fill="#A8D9EE"/>
<path d="M180.351 542.788V560H194.376L194.413 542.788H180.351Z" fill="black"/>
<path d="M959.196 343.271V355.649V371.909V406.479V411.606H976.408C975.334 411.606 974.382 411.265 973.552 410.581C972.771 409.897 972.185 408.701 971.794 406.992C971.452 405.234 971.281 400.425 971.281 392.563V329.136H958.61C959.001 330.894 959.196 335.605 959.196 343.271Z" fill="black"/>
<path d="M959.196 343.271V355.649V371.909V406.479V411.606H976.408C975.334 411.606 974.382 411.265 973.552 410.581C972.771 409.897 972.185 408.701 971.794 406.992C971.452 405.234 971.281 400.425 971.281 392.563V329.136H958.61C959.001 330.894 959.196 335.605 959.196 343.271Z" fill="#A8D9EE"/>
<path d="M981.682 410.361C979.484 411.191 977.727 411.606 976.408 411.606H959.196V421.201H962.565L982.487 412.925L981.682 410.361Z" fill="#A8D9EE"/>
<path fill-rule="evenodd" clip-rule="evenodd" d="M949.602 419.004C952.727 417.49 955.925 415.024 959.196 411.606V406.479C955.046 410.923 950.749 413.145 946.306 413.145C941.032 413.145 936.247 410.532 931.95 405.308C927.653 400.034 925.505 392.466 925.505 382.603C925.505 372.837 927.727 365.415 932.17 360.337C935.539 356.479 939.372 354.551 943.669 354.551C945.964 354.551 948.308 355.259 950.7 356.675C953.142 358.042 955.095 360.093 956.56 362.827C958.024 365.562 958.903 368.589 959.196 371.909V355.649C955.339 351.89 950.456 350.01 944.548 350.01C935.026 350.01 927.238 354.014 921.184 362.021C915.129 369.98 912.102 378.77 912.102 388.389C912.102 398.008 914.836 405.894 920.305 412.046C925.773 418.149 932.17 421.201 939.494 421.201C943.107 421.201 946.477 420.469 949.602 419.004Z" fill="black"/>
<path d="M956.926 325.547C957.707 326.182 958.269 327.378 958.61 329.136H971.281V315H967.985L947.99 323.203L948.942 325.767C951.042 324.985 952.727 324.595 953.996 324.595C955.168 324.595 956.145 324.912 956.926 325.547Z" fill="#A8D9EE"/>
<path fill-rule="evenodd" clip-rule="evenodd" d="M898.771 350.083C892.863 350.083 887.102 355.112 881.486 365.171V371.323C883.83 366.733 886.101 363.438 888.298 361.436C889.323 360.459 890.275 359.971 891.154 359.971C892.18 359.971 893.742 360.825 895.842 362.534C897.99 364.194 899.919 365.024 901.628 365.024C903.386 365.024 904.899 364.365 906.169 363.047C907.438 361.729 908.073 360.117 908.073 358.213C908.073 356.064 907.194 354.185 905.437 352.573C903.679 350.913 901.457 350.083 898.771 350.083Z" fill="black"/>
<path d="M881.486 365.171V350.083H878.41L858.122 358.286L858.854 360.923C860.759 360.19 862.468 359.824 863.981 359.824C865.251 359.824 866.301 360.166 867.131 360.85C868.01 361.533 868.596 362.632 868.889 364.146C869.23 365.61 869.401 370.249 869.401 378.062V404.062C869.401 407.969 869.279 410.337 869.035 411.167C868.547 412.876 867.692 414.121 866.472 414.902C864.812 415.977 862.272 416.514 858.854 416.514V419.15H893.205V416.514C890.178 416.514 887.858 416.074 886.247 415.195C884.636 414.316 883.513 413.218 882.878 411.899C881.95 409.995 881.486 407.188 881.486 403.477V371.323V365.171Z" fill="black"/>
<path d="M881.486 365.171V350.083H878.41L858.122 358.286L858.854 360.923C860.759 360.19 862.468 359.824 863.981 359.824C865.251 359.824 866.301 360.166 867.131 360.85C868.01 361.533 868.596 362.632 868.889 364.146C869.23 365.61 869.401 370.249 869.401 378.062V404.062C869.401 407.969 869.279 410.337 869.035 411.167C868.547 412.876 867.692 414.121 866.472 414.902C864.812 415.977 862.272 416.514 858.854 416.514V419.15H893.205V416.514C890.178 416.514 887.858 416.074 886.247 415.195C884.636 414.316 883.513 413.218 882.878 411.899C881.95 409.995 881.486 407.188 881.486 403.477V371.323V365.171Z" fill="#A8D9EE"/>
<path d="M833.22 409.482C826.335 414.805 822.014 417.881 820.256 418.711C817.619 419.932 814.812 420.542 811.833 420.542C807.194 420.542 803.361 418.955 800.334 415.781C797.355 412.607 795.866 408.433 795.866 403.257C795.866 399.985 796.599 397.153 798.063 394.761C800.065 391.44 803.532 388.315 808.464 385.386C813.444 382.456 821.696 378.892 833.22 374.692V372.056C833.22 365.366 832.146 360.776 829.997 358.286C827.897 355.796 824.821 354.551 820.769 354.551C817.692 354.551 815.251 355.381 813.444 357.041C811.589 358.701 810.661 360.605 810.661 362.754L810.808 367.002C810.808 369.248 810.222 370.981 809.05 372.202C807.927 373.423 806.438 374.033 804.582 374.033C802.775 374.033 801.286 373.398 800.114 372.129C798.991 370.859 798.43 369.126 798.43 366.929C798.43 362.729 800.578 358.872 804.875 355.356C809.172 351.841 815.202 350.083 822.966 350.083C828.923 350.083 833.806 351.084 837.614 353.086C840.495 354.6 842.619 356.968 843.986 360.19C844.865 362.29 845.305 366.587 845.305 373.081V395.859C845.305 402.256 845.427 406.187 845.671 407.651C845.915 409.067 846.306 410.02 846.843 410.508C847.429 410.996 848.088 411.24 848.82 411.24C849.602 411.24 850.285 411.069 850.871 410.728C851.896 410.093 853.874 408.311 856.804 405.381V409.482C851.335 416.807 846.11 420.469 841.13 420.469C838.737 420.469 836.833 419.639 835.417 417.979C834.001 416.318 833.269 413.486 833.22 409.482ZM833.22 404.722V379.16C825.847 382.09 821.086 384.165 818.938 385.386C815.08 387.534 812.321 389.78 810.661 392.124C809.001 394.468 808.171 397.031 808.171 399.814C808.171 403.33 809.221 406.26 811.32 408.604C813.42 410.898 815.837 412.046 818.571 412.046C822.282 412.046 827.165 409.604 833.22 404.722Z" fill="black"/>
<path d="M767.595 343.271V355.649V371.909V406.479V411.606H784.807C783.732 411.606 782.78 411.265 781.95 410.581C781.169 409.897 780.583 408.701 780.192 406.992C779.851 405.234 779.68 400.425 779.68 392.563V343.271H767.595Z" fill="black"/>
<path d="M767.595 343.271V355.649V371.909V406.479V411.606H784.807C783.732 411.606 782.78 411.265 781.95 410.581C781.169 409.897 780.583 408.701 780.192 406.992C779.851 405.234 779.68 400.425 779.68 392.563V343.271H767.595Z" fill="#A8D9EE"/>
<path d="M767.009 329.136C767.399 330.894 767.595 335.605 767.595 343.271H779.68V329.136H767.009Z" fill="black"/>
<path d="M767.009 329.136C767.399 330.894 767.595 335.605 767.595 343.271H779.68V329.136H767.009Z" fill="#A8D9EE"/>
<path d="M765.324 325.547C766.105 326.182 766.667 327.378 767.009 329.136H779.68V315H776.384L756.389 323.203L757.341 325.767C759.44 324.985 761.125 324.595 762.395 324.595C763.566 324.595 764.543 324.912 765.324 325.547Z" fill="#A8D9EE"/>
<path fill-rule="evenodd" clip-rule="evenodd" d="M767.595 411.606C764.323 415.024 761.125 417.49 758 419.004C754.875 420.469 751.506 421.201 747.893 421.201C740.568 421.201 734.172 418.149 728.703 412.046C723.234 405.894 720.5 398.008 720.5 388.389C720.5 378.77 723.527 369.98 729.582 362.021C735.637 354.014 743.425 350.01 752.946 350.01C758.854 350.01 763.737 351.89 767.595 355.649V371.909C767.302 368.589 766.423 365.562 764.958 362.827C763.493 360.093 761.54 358.042 759.099 356.675C756.706 355.259 754.362 354.551 752.067 354.551C747.771 354.551 743.938 356.479 740.568 360.337C736.125 365.415 733.903 372.837 733.903 382.603C733.903 392.466 736.052 400.034 740.349 405.308C744.646 410.532 749.431 413.145 754.704 413.145C759.147 413.145 763.444 410.923 767.595 406.479V411.606Z" fill="black"/>
<path d="M790.08 410.361C787.883 411.191 786.125 411.606 784.807 411.606H767.595V421.201H770.964L790.886 412.925L790.08 410.361Z" fill="#A8D9EE"/>
<path fill-rule="evenodd" clip-rule="evenodd" d="M687.248 350.083C680.119 350.083 672.624 354.819 664.763 364.292V368.613C670.524 362.266 676.311 359.092 682.121 359.092C685.881 359.092 688.542 360.483 690.104 363.267C691.716 366.001 692.521 370.42 692.521 376.523V403.989C692.521 407.847 692.424 410.142 692.229 410.874C691.74 412.729 690.861 414.146 689.592 415.122C688.371 416.05 686.198 416.514 683.073 416.514H681.682V419.15H714.86V416.514C711.638 416.514 709.416 416.172 708.195 415.488C707.023 414.805 706.169 413.853 705.632 412.632C704.948 411.118 704.606 408.237 704.606 403.989V375.352C704.606 369.297 704.069 364.805 702.995 361.875C701.433 357.676 699.333 354.673 696.696 352.866C694.06 351.011 690.91 350.083 687.248 350.083Z" fill="black"/>
<path d="M664.763 403.989V368.613V364.292V350.083H661.613L641.398 358.286L642.497 360.923C644.401 360.19 646.037 359.824 647.404 359.824C648.674 359.824 649.675 360.142 650.407 360.776C651.188 361.411 651.75 362.607 652.092 364.365C652.482 366.123 652.678 371.03 652.678 379.087V403.989C652.678 408.872 652.067 412.192 650.847 413.95C649.675 415.659 647.38 416.514 643.962 416.514H642.497V419.15H675.676V416.514C672.014 416.514 669.572 416.196 668.352 415.562C667.18 414.878 666.252 413.828 665.568 412.412C665.031 411.338 664.763 408.53 664.763 403.989Z" fill="black"/>
<path d="M664.763 403.989V368.613V364.292V350.083H661.613L641.398 358.286L642.497 360.923C644.401 360.19 646.037 359.824 647.404 359.824C648.674 359.824 649.675 360.142 650.407 360.776C651.188 361.411 651.75 362.607 652.092 364.365C652.482 366.123 652.678 371.03 652.678 379.087V403.989C652.678 408.872 652.067 412.192 650.847 413.95C649.675 415.659 647.38 416.514 643.962 416.514H642.497V419.15H675.676V416.514C672.014 416.514 669.572 416.196 668.352 415.562C667.18 414.878 666.252 413.828 665.568 412.412C665.031 411.338 664.763 408.53 664.763 403.989Z" fill="#A8D9EE"/>
<path d="M616.569 409.482C609.685 414.805 605.363 417.881 603.605 418.711C600.969 419.932 598.161 420.542 595.183 420.542C590.544 420.542 586.711 418.955 583.684 415.781C580.705 412.607 579.216 408.433 579.216 403.257C579.216 399.985 579.948 397.153 581.413 394.761C583.415 391.44 586.882 388.315 591.813 385.386C596.794 382.456 605.046 378.892 616.569 374.692V372.056C616.569 365.366 615.495 360.776 613.347 358.286C611.247 355.796 608.171 354.551 604.118 354.551C601.042 354.551 598.601 355.381 596.794 357.041C594.938 358.701 594.011 360.605 594.011 362.754L594.157 367.002C594.157 369.248 593.571 370.981 592.399 372.202C591.276 373.423 589.787 374.033 587.932 374.033C586.125 374.033 584.636 373.398 583.464 372.129C582.341 370.859 581.779 369.126 581.779 366.929C581.779 362.729 583.928 358.872 588.225 355.356C592.521 351.841 598.552 350.083 606.315 350.083C612.272 350.083 617.155 351.084 620.964 353.086C623.845 354.6 625.969 356.968 627.336 360.19C628.215 362.29 628.654 366.587 628.654 373.081V395.859C628.654 402.256 628.776 406.187 629.021 407.651C629.265 409.067 629.655 410.02 630.192 410.508C630.778 410.996 631.438 411.24 632.17 411.24C632.951 411.24 633.635 411.069 634.221 410.728C635.246 410.093 637.224 408.311 640.153 405.381V409.482C634.685 416.807 629.46 420.469 624.479 420.469C622.087 420.469 620.183 419.639 618.767 417.979C617.351 416.318 616.618 413.486 616.569 409.482ZM616.569 404.722V379.16C609.196 382.09 604.436 384.165 602.287 385.386C598.43 387.534 595.671 389.78 594.011 392.124C592.351 394.468 591.521 397.031 591.521 399.814C591.521 403.33 592.57 406.26 594.67 408.604C596.77 410.898 599.187 412.046 601.921 412.046C605.632 412.046 610.515 409.604 616.569 404.722Z" fill="black"/>
<path fill-rule="evenodd" clip-rule="evenodd" d="M558.122 409.482C556.901 407.969 556.291 405.039 556.291 400.693V420.223C556.559 420.24 556.827 420.249 557.097 420.249C560.417 420.249 563.64 419.053 566.765 416.66C569.89 414.219 572.307 410.605 574.016 405.82H571.159C570.329 407.773 569.157 409.263 567.644 410.288C566.13 411.265 564.567 411.753 562.956 411.753C561.003 411.753 559.392 410.996 558.122 409.482ZM533.586 357.188H544.206V346.946C543.428 347.788 542.622 348.589 541.789 349.351C539.006 351.89 536.271 353.696 533.586 354.771V357.188Z" fill="black"/>
<path fill-rule="evenodd" clip-rule="evenodd" d="M556.291 330.015V352.061V357.188V400.693V420.223C554.324 420.094 552.396 419.492 550.505 418.418C548.356 417.148 546.77 415.366 545.744 413.071C544.719 410.728 544.206 407.139 544.206 402.305V357.188V346.946C546.073 344.927 547.782 342.677 549.333 340.195C550.456 338.34 552.019 334.946 554.021 330.015H556.291Z" fill="#A8D9EE"/>
<path d="M571.965 352.061H556.291V357.188H571.965V352.061Z" fill="black"/>
<path d="M517.399 317.563V351.914H514.689C513.811 345.322 512.224 340.073 509.929 336.167C507.683 332.261 504.46 329.16 500.261 326.865C496.062 324.57 491.716 323.423 487.224 323.423C482.146 323.423 477.946 324.985 474.626 328.11C471.306 331.187 469.646 334.702 469.646 338.657C469.646 341.685 470.695 344.443 472.795 346.934C475.822 350.596 483.024 355.479 494.401 361.582C503.679 366.562 510.002 370.396 513.371 373.081C516.789 375.718 519.401 378.843 521.208 382.456C523.063 386.069 523.991 389.854 523.991 393.809C523.991 401.328 521.062 407.822 515.202 413.291C509.392 418.711 501.896 421.421 492.717 421.421C489.836 421.421 487.126 421.201 484.587 420.762C483.073 420.518 479.924 419.639 475.139 418.125C470.402 416.562 467.399 415.781 466.13 415.781C464.909 415.781 463.933 416.147 463.2 416.88C462.517 417.612 462.004 419.126 461.662 421.421H458.952V387.363H461.662C462.932 394.492 464.641 399.839 466.789 403.403C468.938 406.919 472.209 409.849 476.604 412.192C481.047 414.536 485.905 415.708 491.179 415.708C497.282 415.708 502.092 414.097 505.607 410.874C509.172 407.651 510.954 403.843 510.954 399.448C510.954 397.007 510.271 394.541 508.903 392.051C507.585 389.561 505.51 387.241 502.678 385.093C500.773 383.628 495.573 380.527 487.077 375.791C478.581 371.006 472.526 367.197 468.913 364.365C465.349 361.533 462.639 358.408 460.783 354.99C458.928 351.572 458 347.812 458 343.711C458 336.582 460.734 330.454 466.203 325.327C471.672 320.151 478.63 317.563 487.077 317.563C492.351 317.563 497.941 318.857 503.85 321.445C506.584 322.666 508.513 323.276 509.636 323.276C510.905 323.276 511.931 322.91 512.712 322.178C513.542 321.396 514.201 319.858 514.689 317.563H517.399Z" fill="black"/>
</svg>
